Coordinates
version=1
nRows=7
nColumns=46
inDegrees=yes

Units are S.I. units (second, meters, Newtons, ...)
Angles are in degrees.

endheader
time	pelvis_tilt	pelvis_list	pelvis_rotation	pelvis_tx	pelvis_ty	pelvis_tz	bb_angle	bb_tx	bb_ty	bb_tz	hip_flexion_r	hip_adduction_r	hip_rotation_r	knee_angle_r	knee_angle_r_beta	ankle_angle_r	subtalar_angle_r	mtp_angle_r	crank_angle_r	hip_flexion_l	hip_adduction_l	hip_rotation_l	knee_angle_l	knee_angle_l_beta	ankle_angle_l	subtalar_angle_l	mtp_angle_l	crank_angle_l	lumbar_extension	lumbar_bending	lumbar_rotation	arm_flex_r	arm_add_r	arm_rot_r	elbow_flex_r	pro_sup_r	wrist_flex_r	wrist_dev_r	arm_flex_l	arm_add_l	arm_rot_l	elbow_flex_l	pro_sup_l	wrist_flex_l	wrist_dev_l
      2.50500000	     -9.24490068	     -1.75699251	     -0.74454745	      0.18277056	      1.05591642	     -0.30993940	      0.00000000	      0.50000000	      0.00000000	      0.25000000	     77.28363276	     -2.12948714	      2.98672824	     89.16033200	      1.55614136	     19.08327079	    -10.37698650	      0.00000000	      0.00000000	     46.99270783	     -9.18305888	     -0.46100761	     72.34022089	      1.26257504	    -14.10069573	    -10.78241853	      0.00000000	      0.00000000	    -58.77718142	      3.00047234	      4.38885899	     89.50468238	     -7.54623399	     40.05001586	     30.42991362	     34.84442719	      0.00000000	      0.00000000	     88.80391518	     -6.35845500	     37.02350181	     25.30833799	     37.23328108	      0.00000000	      0.00000000
      2.51000000	     -9.53419644	     -1.71002976	     -0.69472885	      0.18286200	      1.05562264	     -0.31004103	      0.00000000	      0.50000000	      0.00000000	      0.25000000	     77.45853453	     -2.10668101	      3.12667850	     88.87415259	      1.55114658	     18.87975762	    -10.43566892	      0.00000000	      0.00000000	     47.42039389	     -9.08638731	     -0.33231959	     72.66173551	      1.26818652	    -13.77095469	    -10.29337792	      0.00000000	      0.00000000	    -58.44417173	      3.13223035	      4.35325868	     89.51441014	     -7.91432647	     42.25799743	     30.32673656	     34.15154043	      0.00000000	      0.00000000	     88.91253521	     -6.77865598	     40.00285278	     24.53565304	     37.13751368	      0.00000000	      0.00000000
      2.51500000	     -9.43718265	     -1.55062919	     -0.58614681	      0.18285523	      1.05629851	     -0.31023617	      0.00000000	      0.50000000	      0.00000000	      0.25000000	     77.20109733	     -2.21830190	      3.30817878	     88.57610310	      1.54594464	     18.66368539	    -10.54850956	      0.00000000	      0.00000000	     47.31820853	     -8.80450909	     -0.32262639	     72.72496047	      1.26929001	    -13.97574471	    -10.81807736	      0.00000000	      0.00000000	    -58.76192363	      3.23075814	      4.28243778	     89.50102188	     -8.03930670	     41.03396561	     31.33288729	     34.74974424	      0.00000000	      0.00000000	     88.82946659	     -7.00745958	     38.81636901	     25.86820680	     37.62011840	      0.00000000	      0.00000000
      2.52000000	     -9.74390911	     -1.47398609	     -0.55913209	      0.18285899	      1.05598002	     -0.31027885	      0.00000000	      0.50000000	      0.00000000	      0.25000000	     77.40108650	     -2.17482540	      3.46320306	     88.28099322	      1.54079400	     18.56254837	    -10.68649930	      0.00000000	      0.00000000	     47.77650706	     -8.67867803	     -0.18097443	     73.09579541	      1.27576230	    -13.60127163	    -10.29664713	      0.00000000	      0.00000000	    -58.64961604	      3.29671169	      4.21375992	     89.45451227	     -8.25952452	     39.71485292	     32.81356998	     35.33251844	      0.00000000	      0.00000000	     88.64277894	     -7.31385076	     37.56223294	     27.42500003	     38.05380070	      0.00000000	      0.00000000
      2.52500000	     -9.84478049	     -1.47371433	     -0.41238873	      0.18292418	      1.05627660	     -0.31053186	      0.00000000	      0.50000000	      0.00000000	      0.25000000	     77.28224089	     -2.24878321	      3.51369129	     87.88155194	      1.53382243	     18.37980256	    -10.69393400	      0.00000000	      0.00000000	     47.95566078	     -8.51852513	      0.01484405	     73.28467421	      1.27905886	    -13.36600711	    -10.15374866	      0.00000000	      0.00000000	    -58.40292613	      3.57514705	      4.13694204	     89.50816042	     -8.11942504	     41.94421398	     31.27191537	     34.65048983	      0.00000000	      0.00000000	     88.84835447	     -7.19037693	     39.74329388	     25.05078178	     37.62697693	      0.00000000	      0.00000000
      2.53000000	     -9.87068460	     -1.37142343	     -0.31050864	      0.18296680	      1.05664132	     -0.31064344	      0.00000000	      0.50000000	      0.00000000	      0.25000000	     77.14634599	     -2.33031680	      3.67531395	     87.58463450	      1.52864025	     18.15269131	    -10.68101484	      0.00000000	      0.00000000	     48.04169272	     -8.30157074	      0.10546792	     73.46040643	      1.28212596	    -13.40962065	    -10.39664013	      0.00000000	      0.00000000	    -58.48651864	      3.68811227	      4.07420697	     89.51316141	     -8.23707019	     42.05808807	     31.84025884	     34.25946907	      0.00000000	      0.00000000	     88.86458955	     -7.36169238	     39.94464505	     25.54904333	     37.42581835	      0.00000000	      0.00000000
      2.53500000	     -9.95907610	     -1.31571243	     -0.21169366	      0.18293527	      1.05687605	     -0.31079188	      0.00000000	      0.50000000	      0.00000000	      0.25000000	     77.04247251	     -2.37364386	      3.77075335	     87.21197446	      1.52213610	     18.00166929	    -10.81622205	      0.00000000	      0.00000000	     48.22934661	     -8.12079404	      0.25209626	     73.68700727	      1.28608089	    -13.36741816	    -10.37346023	      0.00000000	      0.00000000	    -58.48478125	      3.84514747	      4.01156195	     89.51691407	     -8.17606816	     41.68612311	     31.92395634	     34.98294640	      0.00000000	      0.00000000	     88.83633087	     -7.34371975	     39.03518187	     25.64577716	     37.93898786	      0.00000000	      0.00000000
